<?xml version="1.0" standalone="no"?>
<!DOCTYPE svg PUBLIC "-//W3C//DTD SVG 20010904//EN"
 "http://www.w3.org/TR/2001/REC-SVG-20010904/DTD/svg10.dtd">
<svg version="1.0" xmlns="http://www.w3.org/2000/svg"
 width="512.000000pt" height="512.000000pt" viewBox="0 0 512.000000 512.000000"
 preserveAspectRatio="xMidYMid meet">
<metadata>
Created by potrace 1.14, written by Peter Selinger 2001-2017
</metadata>
<g transform="translate(0.000000,512.000000) scale(0.100000,-0.100000)"
fill="#000000" stroke="none">
<path d="M2541 5090 c-12 -19 -159 -265 -327 -546 l-306 -512 -81 -11 c-45 -7
-100 -14 -122 -17 -22 -3 -89 -14 -150 -25 -601 -110 -911 -314 -778 -510 91
-133 344 -236 804 -328 51 -11 56 -14 68 -49 32 -91 127 -212 166 -212 20 0
19 -14 -2 -32 -22 -19 -113 -69 -113 -62 0 2 -9 0 -21 -7 -11 -6 -44 -13 -72
-16 -29 -3 -53 -6 -55 -8 -4 -4 104 -73 153 -98 59 -29 182 -67 218 -67 14 0
29 -6 34 -12 14 -24 12 -93 -7 -203 -11 -60 -22 -126 -25 -145 -37 -232 -39
-236 -155 -352 -125 -123 -242 -179 -376 -179 -72 0 -74 -1 -74 -25 l0 -24
-102 2 c-99 3 -102 4 -109 28 -4 14 -60 178 -124 365 -64 187 -126 369 -138
405 -22 69 -43 107 -27 49 5 -19 11 -47 14 -63 3 -16 10 -52 15 -80 6 -28 12
-62 15 -76 2 -14 14 -74 26 -135 12 -60 32 -166 46 -235 13 -69 26 -135 29
-147 5 -20 1 -23 -28 -23 -39 0 -73 -25 -82 -62 -6 -24 9 -87 51 -218 17 -54
60 -85 103 -77 25 5 28 2 39 -38 9 -33 20 -48 42 -60 43 -22 92 -6 113 37 15
32 15 37 -17 136 -6 19 -4 22 21 23 15 0 47 1 71 2 39 2 42 0 43 -23 0 -14 1
-74 2 -135 l2 -110 55 0 c139 -2 279 53 357 139 l48 52 -62 -365 c-34 -201
-86 -514 -117 -696 -31 -181 -56 -333 -56 -337 0 -5 455 -8 1011 -8 l1011 0
-6 27 c-6 27 -46 267 -51 308 -2 11 -8 49 -15 85 -7 36 -14 79 -17 95 -6 41
-43 264 -49 295 -2 14 -7 41 -10 60 -3 19 -7 42 -9 50 -2 8 -7 33 -10 55 -3
23 -8 52 -10 65 -3 14 -8 43 -10 65 -3 22 -8 47 -10 55 -3 8 -7 32 -9 54 -3
21 -8 46 -10 55 -3 9 -8 36 -11 61 -3 25 -9 54 -12 65 -4 14 1 11 18 -10 86
-110 256 -183 400 -173 l44 3 2 100 c1 55 2 116 3 135 l0 35 67 -2 c38 0 73
-2 79 -2 8 -1 11 -213 12 -728 0 -401 1 -734 1 -740 1 -9 19 -13 56 -13 l55 0
0 706 c0 635 2 706 16 700 25 -10 83 21 94 49 6 15 10 65 10 111 0 82 -1 87
-30 116 -24 23 -37 29 -60 26 l-30 -5 0 328 0 327 29 10 c58 20 58 83 1 103
-27 10 -30 15 -30 55 0 39 3 45 32 60 94 49 129 157 82 252 -74 149 -276 147
-345 -3 -43 -94 1 -218 91 -255 25 -10 27 -16 26 -58 -1 -30 -6 -47 -13 -48
-7 -1 -19 -2 -26 -3 -39 -3 -36 -101 3 -101 10 0 22 -6 27 -12 7 -8 10 -143 9
-358 l-1 -345 -77 -2 -78 -1 0 30 c0 16 -4 27 -10 23 -20 -13 -128 -7 -184 9
-63 19 -161 74 -216 122 -18 16 -61 62 -95 102 -65 75 -67 81 -90 232 -3 19
-8 42 -10 50 -2 8 -7 35 -10 60 -4 24 -8 47 -10 50 -2 3 -5 61 -6 130 l-3 124
70 14 c88 17 188 59 271 113 l66 43 -69 12 c-70 11 -151 43 -176 67 -7 7 -22
18 -33 24 -18 10 -16 12 16 26 47 19 101 87 144 180 20 42 39 76 43 75 22 -6
267 48 397 88 473 144 603 341 346 523 -79 56 -330 156 -441 176 -18 3 -37 8
-41 10 -4 3 -51 14 -104 25 -112 23 -197 37 -332 55 -122 16 -100 -4 -230 213
-125 209 -123 205 -167 279 -167 278 -336 564 -349 588 l-15 29 -21 -34z"/>
</g>
</svg>
